<?xml version="1.0" encoding="utf-8"?>
<!-- Generator: Adobe Illustrator 26.0.2, SVG Export Plug-In . SVG Version: 6.00 Build 0)  -->
<svg version="1.1" id="Capa_1" xmlns="http://www.w3.org/2000/svg" xmlns:xlink="http://www.w3.org/1999/xlink" x="0px" y="0px"
	 viewBox="0 0 360 99" style="enable-background:new 0 0 360 99;" xml:space="preserve">
<style type="text/css">
	.st0{fill:#760027;}
	.st1{fill:#FF0063;}
	.st2{fill:#FFFFFF;}
</style>
<g>
	<g>
		<path class="st0" d="M37.33,69.47L32,98.8c0,0-32-21.33-32-50.67"/>
	</g>
	<g>
		<path class="st1" d="M23.49,77.47h313.02c12.97,0,23.49-10.52,23.49-23.49V23.62c0-12.97-10.52-23.49-23.49-23.49l-313.02,0
			C10.52,0.13,0,10.65,0,23.62l0,30.35C0,66.95,10.52,77.47,23.49,77.47z"/>
	</g>
	<g>
		<path class="st2" d="M150.34,53.53h-4.1V11.83h4.1V53.53z"/>
		<path class="st2" d="M157.47,22.02h3.92v3.58c1.24-1.43,2.68-2.49,4.31-3.18s3.5-1.03,5.6-1.03c2.31,0,4.37,0.43,6.17,1.29
			s3.23,2.09,4.28,3.7c0.73,1.13,1.25,2.45,1.56,3.97c0.32,1.52,0.47,3.76,0.47,6.72v16.47h-3.98V35.89c0-3.72-0.71-6.43-2.13-8.11
			c-1.42-1.68-3.7-2.52-6.83-2.52c-1.83,0-3.44,0.37-4.83,1.1c-1.39,0.74-2.48,1.79-3.28,3.17c-0.5,0.86-0.85,1.84-1.05,2.94
			c-0.2,1.1-0.3,3.01-0.3,5.74v15.33h-3.92V22.02z"/>
		<path class="st2" d="M195.6,56.11c0.61,1.83,1.72,3.26,3.32,4.28c1.6,1.02,3.55,1.53,5.84,1.53c3.59,0,6.47-1.19,8.64-3.58
			c2.17-2.39,3.25-5.58,3.25-9.57v-0.83c-1.53,2.08-3.27,3.65-5.21,4.71c-1.95,1.06-4.1,1.59-6.45,1.59c-4.74,0-8.67-1.58-11.8-4.74
			c-3.13-3.16-4.7-7.1-4.7-11.82c0-4.64,1.55-8.54,4.64-11.69s6.92-4.73,11.49-4.73c2.65,0,4.95,0.48,6.89,1.43
			c1.94,0.96,3.65,2.45,5.14,4.47v-5.16h3.95v26.3c0,5.5-1.38,9.8-4.14,12.89c-2.76,3.09-6.57,4.64-11.42,4.64
			c-3.57,0-6.64-0.88-9.2-2.65c-2.56-1.77-4.21-4.13-4.96-7.09H195.6z M192.79,37.52c0,3.69,1.17,6.77,3.51,9.25
			c2.34,2.48,5.16,3.72,8.46,3.72c3.11,0,5.86-1.25,8.25-3.74c2.39-2.49,3.58-5.42,3.58-8.78c0-3.59-1.17-6.65-3.52-9.2
			c-2.35-2.54-5.12-3.81-8.31-3.81c-3.29,0-6.1,1.21-8.45,3.62C193.96,31.01,192.79,33.99,192.79,37.52z"/>
		<path class="st2" d="M230.92,53.53h-4.1V22.02h3.81v3.64c0.99-1.39,2.08-2.42,3.25-3.07c1.17-0.65,2.54-0.99,4.11-1.03l0.03,4.38
			c-2.54,0.23-4.36,0.99-5.46,2.28c-1.1,1.29-1.65,3.39-1.65,6.29V53.53z"/>
		<path class="st2" d="M272.45,39.07h-28.45c0.25,3.43,1.49,6.2,3.72,8.32s5.02,3.17,8.36,3.17c2.37,0,4.5-0.61,6.39-1.84
			s3.35-2.93,4.38-5.12h4.58c-1.45,3.49-3.49,6.16-6.12,8.03c-2.63,1.87-5.67,2.8-9.12,2.8c-4.58,0-8.46-1.63-11.63-4.9
			c-3.17-3.27-4.76-7.19-4.76-11.77c0-4.79,1.55-8.76,4.65-11.89c3.1-3.13,7.07-4.7,11.9-4.7c4.74,0,8.6,1.63,11.59,4.89
			c2.99,3.26,4.48,7.5,4.48,12.72V39.07z M267.98,35.54c-0.76-3.51-2.17-6.14-4.21-7.91c-2.04-1.77-4.71-2.66-7.99-2.66
			c-3.06,0-5.64,0.95-7.76,2.86c-2.12,1.9-3.42,4.48-3.9,7.71H267.98z"/>
		<path class="st2" d="M275.09,43.62h4.15v0.11c0,1.97,0.56,3.6,1.69,4.88c1.13,1.29,2.52,1.93,4.18,1.93c1.58,0,2.9-0.5,3.95-1.49
			c1.05-0.99,1.58-2.24,1.58-3.75c0-1.51-0.42-2.72-1.25-3.64c-0.83-0.92-2.33-1.78-4.51-2.58c-3.49-1.24-5.78-2.51-6.85-3.81
			c-1.07-1.3-1.6-3.04-1.6-5.21c0-2.46,0.89-4.55,2.68-6.27c1.79-1.72,3.95-2.58,6.49-2.58c2.69,0,4.83,0.76,6.42,2.29
			c1.58,1.53,2.43,3.66,2.55,6.39h-4.33c-0.1-1.49-0.57-2.64-1.42-3.47c-0.85-0.82-2.01-1.23-3.48-1.23c-1.32,0-2.42,0.44-3.29,1.33
			c-0.88,0.89-1.32,1.99-1.32,3.31c0,0.94,0.18,1.72,0.54,2.36c0.36,0.64,0.96,1.22,1.8,1.73c0.76,0.48,1.88,0.94,3.34,1.38
			c1.46,0.44,2.44,0.76,2.94,0.97c1.97,0.84,3.41,1.96,4.34,3.35c0.93,1.39,1.39,3.17,1.39,5.33c0,2.71-0.95,4.96-2.84,6.73
			c-1.89,1.78-4.29,2.66-7.19,2.66c-2.96,0-5.34-0.97-7.13-2.91C276.13,49.52,275.18,46.91,275.09,43.62z"/>
		<path class="st2" d="M298.21,37.81c0-4.62,1.58-8.57,4.76-11.86c3.17-3.28,6.92-4.93,11.26-4.93c4.56,0,8.45,1.61,11.67,4.84
			c3.22,3.23,4.83,7.08,4.83,11.54c0,4.7-1.58,8.71-4.73,12.03c-3.15,3.32-6.97,4.98-11.46,4.98c-4.57,0-8.43-1.63-11.59-4.88
			C299.79,46.28,298.21,42.37,298.21,37.81z M302.45,37.75c0,3.63,1.15,6.67,3.47,9.12c2.31,2.45,5.18,3.68,8.62,3.68
			c3.38,0,6.22-1.23,8.51-3.68c2.29-2.45,3.44-5.51,3.44-9.18c0-3.72-1.16-6.78-3.48-9.18c-2.32-2.4-5.27-3.6-8.84-3.6
			c-3.21,0-5.96,1.23-8.26,3.7C303.6,31.08,302.45,34.12,302.45,37.75z"/>
	</g>
</g>
</svg>
