<?xml version="1.0" encoding="utf-8"?>
<svg version="1.1" id="Capa_1" x="0px" y="0px" viewBox="0 0 42 36" style="enable-background:new 0 0 42 36;" xmlns="http://www.w3.org/2000/svg">
  <defs/>
  <style type="text/css">
	.st0{fill:#FB0052;}
	.st1{fill:#FFFFFF;}
</style>
  <g>
    <polygon class="st0" points="31.22,0.02 10.44,0.02 0.05,18.02 10.44,36.02 31.22,36.02 41.62,18.02 &#9;" style="fill: rgb(255, 146, 39);"/>
  </g>
  <g id="T60xAv.tif_00000031896427557866049620000017289465415672837010_">
    <g>
      <path class="st1" d="M 16.15 26.397 C 16.15 22.271 16.15 18.134 16.15 13.975 C 15.283 13.975 14.449 13.975 13.538 13.975 C 13.626 13.843 13.681 13.766 13.747 13.689 C 14.745 12.405 15.744 11.132 16.731 9.849 C 16.786 9.783 16.83 9.706 16.874 9.64 C 16.896 9.64 16.907 9.64 16.929 9.64 C 17.478 10.353 18.015 11.067 18.564 11.769 C 19.069 12.427 19.585 13.075 20.09 13.733 C 20.133 13.799 20.177 13.854 20.243 13.953 C 19.365 13.953 18.531 13.953 17.664 13.953 C 17.653 14.052 17.642 14.128 17.642 14.205 C 17.642 18.222 17.642 22.238 17.642 26.266 C 17.642 26.31 17.642 26.353 17.653 26.397 C 17.159 26.397 16.655 26.397 16.15 26.397 Z" style=""/>
    </g>
  </g>
  <g id="T60xAv.tif_00000178898318208963049920000014170653123141301902_" style="" transform="matrix(1.097406, 0, 0, 1.097406, -1.507476, -1.410984)">
    <g>
      <path class="st1" d="M25.46,10.07c0,3.76,0,7.53,0,11.32c0.79,0,1.55,0,2.38,0c-0.08,0.12-0.13,0.19-0.19,0.26&#10;&#9;&#9;&#9;c-0.91,1.17-1.82,2.33-2.72,3.5c-0.05,0.06-0.09,0.13-0.13,0.19c-0.02,0-0.03,0-0.05,0c-0.5-0.65-0.99-1.3-1.49-1.94&#10;&#9;&#9;&#9;c-0.46-0.6-0.93-1.19-1.39-1.79c-0.04-0.06-0.08-0.11-0.14-0.2c0.8,0,1.56,0,2.35,0c0.01-0.09,0.02-0.16,0.02-0.23&#10;&#9;&#9;&#9;c0-3.66,0-7.32,0-10.99c0-0.04,0-0.08-0.01-0.12C24.53,10.07,24.99,10.07,25.46,10.07z"/>
    </g>
  </g>
</svg>