<svg xmlns="http://www.w3.org/2000/svg" xmlns:xlink="http://www.w3.org/1999/xlink" width="1576" zoomAndPan="magnify" viewBox="0 0 1182 1236.749941" height="1649" preserveAspectRatio="xMidYMid meet" version="1.0"><defs><g/><clipPath id="3757b0f801"><path d="M 232.160156 372 L 586.015625 372 L 586.015625 844.261719 L 232.160156 844.261719 Z M 232.160156 372 " clip-rule="nonzero"/></clipPath><clipPath id="4ff3720df5"><path d="M 232.160156 726.3125 L 232.160156 490.410156 L 586.015625 372.457031 L 586.015625 844.261719 Z M 232.160156 726.3125 " clip-rule="nonzero"/></clipPath><clipPath id="e9038fb517"><path d="M 615.742188 372.457031 L 969.59375 372.457031 L 969.59375 844 L 615.742188 844 Z M 615.742188 372.457031 " clip-rule="nonzero"/></clipPath><clipPath id="6e69658c20"><path d="M 969.59375 490.410156 L 969.59375 726.3125 L 615.742188 844.261719 L 615.742188 372.457031 Z M 969.59375 490.410156 " clip-rule="nonzero"/></clipPath><clipPath id="fc8884ee8b"><path d="M 707 738 L 970 738 L 970 865 L 707 865 Z M 707 738 " clip-rule="nonzero"/></clipPath><clipPath id="ebf67d5e58"><path d="M 720.234375 902.433594 L 700.925781 776.691406 L 950.445312 738.375 L 969.753906 864.117188 Z M 720.234375 902.433594 " clip-rule="nonzero"/></clipPath><clipPath id="864eb5b371"><path d="M 714.039062 862.09375 L 707.121094 817.027344 L 949.984375 738.445312 L 969.289062 864.1875 Z M 714.039062 862.09375 " clip-rule="nonzero"/></clipPath><clipPath id="070cfb80a8"><path d="M 671 317 L 970 317 L 970 477 L 671 477 Z M 671 317 " clip-rule="nonzero"/></clipPath><clipPath id="5b913a09a7"><path d="M 664.347656 440.117188 L 684.628906 281.078125 L 969.78125 317.4375 L 949.503906 476.476562 Z M 664.347656 440.117188 " clip-rule="nonzero"/></clipPath><clipPath id="d3adf6ed88"><path d="M 671.160156 386.6875 L 677.816406 334.507812 L 969.59375 317.414062 L 949.316406 476.453125 Z M 671.160156 386.6875 " clip-rule="nonzero"/></clipPath><clipPath id="18879f4297"><path d="M 232 350 L 495 350 L 495 477 L 232 477 Z M 232 350 " clip-rule="nonzero"/></clipPath><clipPath id="e52eda7322"><path d="M 481.277344 312.933594 L 500.34375 438.710938 L 250.753906 476.546875 L 231.6875 350.769531 Z M 481.277344 312.933594 " clip-rule="nonzero"/></clipPath><clipPath id="27e632aef8"><path d="M 487.394531 353.28125 L 494.230469 398.359375 L 251.214844 476.476562 L 232.148438 350.699219 Z M 487.394531 353.28125 " clip-rule="nonzero"/></clipPath><clipPath id="f6176ea51b"><path d="M 232 738 L 532 738 L 532 898 L 232 898 Z M 232 738 " clip-rule="nonzero"/></clipPath><clipPath id="87c14f9d45"><path d="M 538.273438 776.859375 L 516.84375 935.746094 L 231.960938 897.324219 L 253.390625 738.433594 Z M 538.273438 776.859375 " clip-rule="nonzero"/></clipPath><clipPath id="0fcc5017bf"><path d="M 531.074219 830.238281 L 524.042969 882.367188 L 232.148438 897.347656 L 253.578125 738.460938 Z M 531.074219 830.238281 " clip-rule="nonzero"/></clipPath></defs><g clip-path="url(#3757b0f801)"><g clip-path="url(#4ff3720df5)"><path fill="#0cc0df" d="M 232.160156 844.261719 L 232.160156 372.917969 L 586.015625 372.917969 L 586.015625 844.261719 Z M 232.160156 844.261719 " fill-opacity="1" fill-rule="nonzero"/></g></g><g fill="#023e73" fill-opacity="0.4"><g transform="translate(334.418672, 781.521517)"><g><path d="M 142.671875 6.34375 C 106.390625 6.34375 77.414062 -4.578125 55.75 -26.421875 C 34.082031 -48.265625 23.25 -78.382812 23.25 -116.78125 L 23.25 -179.140625 C 23.25 -217.179688 33.90625 -247.125 55.21875 -268.96875 C 76.53125 -290.8125 105.679688 -301.734375 142.671875 -301.734375 C 171.203125 -301.734375 197.800781 -294.863281 222.46875 -281.125 L 209.78125 -243.078125 C 190.40625 -254.347656 169.625 -259.984375 147.4375 -259.984375 C 121.007812 -259.984375 101.453125 -252.234375 88.765625 -236.734375 C 76.085938 -221.234375 69.75 -201.328125 69.75 -177.015625 L 69.75 -118.890625 C 69.75 -94.585938 76.175781 -74.597656 89.03125 -58.921875 C 101.894531 -43.242188 121.363281 -35.40625 147.4375 -35.40625 C 169.976562 -35.40625 190.9375 -41.039062 210.3125 -52.3125 L 223 -13.734375 C 199.039062 -0.347656 172.265625 6.34375 142.671875 6.34375 Z M 142.671875 6.34375 "/></g></g></g><g fill="#023e73" fill-opacity="1"><g transform="translate(311.476739, 757.764447)"><g><path d="M 142.671875 6.34375 C 106.390625 6.34375 77.414062 -4.578125 55.75 -26.421875 C 34.082031 -48.265625 23.25 -78.382812 23.25 -116.78125 L 23.25 -179.140625 C 23.25 -217.179688 33.90625 -247.125 55.21875 -268.96875 C 76.53125 -290.8125 105.679688 -301.734375 142.671875 -301.734375 C 171.203125 -301.734375 197.800781 -294.863281 222.46875 -281.125 L 209.78125 -243.078125 C 190.40625 -254.347656 169.625 -259.984375 147.4375 -259.984375 C 121.007812 -259.984375 101.453125 -252.234375 88.765625 -236.734375 C 76.085938 -221.234375 69.75 -201.328125 69.75 -177.015625 L 69.75 -118.890625 C 69.75 -94.585938 76.175781 -74.597656 89.03125 -58.921875 C 101.894531 -43.242188 121.363281 -35.40625 147.4375 -35.40625 C 169.976562 -35.40625 190.9375 -41.039062 210.3125 -52.3125 L 223 -13.734375 C 199.039062 -0.347656 172.265625 6.34375 142.671875 6.34375 Z M 142.671875 6.34375 "/></g></g></g><g clip-path="url(#e9038fb517)"><g clip-path="url(#6e69658c20)"><path fill="#023e73" d="M 969.59375 372.457031 L 969.59375 843.800781 L 615.742188 843.800781 L 615.742188 372.457031 Z M 969.59375 372.457031 " fill-opacity="1" fill-rule="nonzero"/></g></g><g fill="#ffffff" fill-opacity="0.4"><g transform="translate(609.593387, 770.831039)"><g><path d="M 115.390625 6.328125 C 98.179688 6.328125 81.9375 4.65625 66.65625 1.3125 C 51.375 -2.019531 36.53125 -6.847656 22.125 -13.171875 L 31.609375 -52.6875 C 43.910156 -46.71875 57 -42.328125 70.875 -39.515625 C 84.75 -36.703125 98.007812 -35.296875 110.65625 -35.296875 C 130.320312 -35.296875 146.390625 -38.109375 158.859375 -43.734375 C 171.335938 -49.359375 177.578125 -60.25 177.578125 -76.40625 C 177.578125 -89.40625 173.535156 -99.328125 165.453125 -106.171875 C 157.367188 -113.023438 142.613281 -119.960938 121.1875 -126.984375 L 98.53125 -134.890625 C 73.238281 -143.671875 55.0625 -154.734375 44 -168.078125 C 32.9375 -181.429688 27.40625 -199 27.40625 -220.78125 C 27.40625 -246.425781 36.097656 -266.007812 53.484375 -279.53125 C 70.867188 -293.050781 94.492188 -299.8125 124.359375 -299.8125 C 140.515625 -299.8125 155.96875 -298.226562 170.71875 -295.0625 C 185.476562 -291.90625 199.003906 -286.992188 211.296875 -280.328125 L 201.8125 -241.328125 C 189.863281 -247.648438 177.566406 -252.128906 164.921875 -254.765625 C 152.273438 -257.398438 140.15625 -258.71875 128.5625 -258.71875 C 111.707031 -258.71875 98.269531 -255.726562 88.25 -249.75 C 78.238281 -243.78125 73.234375 -234.472656 73.234375 -221.828125 C 73.234375 -209.890625 77.007812 -200.40625 84.5625 -193.375 C 92.125 -186.351562 105.035156 -179.859375 123.296875 -173.890625 L 142.796875 -167.03125 C 169.847656 -157.550781 190.046875 -146.488281 203.390625 -133.84375 C 216.742188 -121.195312 223.421875 -102.925781 223.421875 -79.03125 C 223.421875 -50.9375 214.109375 -29.6875 195.484375 -15.28125 C 176.867188 -0.875 150.171875 6.328125 115.390625 6.328125 Z M 115.390625 6.328125 "/></g></g></g><g fill="#ffffff" fill-opacity="1"><g transform="translate(632.881158, 747.543266)"><g><path d="M 115.390625 6.328125 C 98.179688 6.328125 81.9375 4.65625 66.65625 1.3125 C 51.375 -2.019531 36.53125 -6.847656 22.125 -13.171875 L 31.609375 -52.6875 C 43.910156 -46.71875 57 -42.328125 70.875 -39.515625 C 84.75 -36.703125 98.007812 -35.296875 110.65625 -35.296875 C 130.320312 -35.296875 146.390625 -38.109375 158.859375 -43.734375 C 171.335938 -49.359375 177.578125 -60.25 177.578125 -76.40625 C 177.578125 -89.40625 173.535156 -99.328125 165.453125 -106.171875 C 157.367188 -113.023438 142.613281 -119.960938 121.1875 -126.984375 L 98.53125 -134.890625 C 73.238281 -143.671875 55.0625 -154.734375 44 -168.078125 C 32.9375 -181.429688 27.40625 -199 27.40625 -220.78125 C 27.40625 -246.425781 36.097656 -266.007812 53.484375 -279.53125 C 70.867188 -293.050781 94.492188 -299.8125 124.359375 -299.8125 C 140.515625 -299.8125 155.96875 -298.226562 170.71875 -295.0625 C 185.476562 -291.90625 199.003906 -286.992188 211.296875 -280.328125 L 201.8125 -241.328125 C 189.863281 -247.648438 177.566406 -252.128906 164.921875 -254.765625 C 152.273438 -257.398438 140.15625 -258.71875 128.5625 -258.71875 C 111.707031 -258.71875 98.269531 -255.726562 88.25 -249.75 C 78.238281 -243.78125 73.234375 -234.472656 73.234375 -221.828125 C 73.234375 -209.890625 77.007812 -200.40625 84.5625 -193.375 C 92.125 -186.351562 105.035156 -179.859375 123.296875 -173.890625 L 142.796875 -167.03125 C 169.847656 -157.550781 190.046875 -146.488281 203.390625 -133.84375 C 216.742188 -121.195312 223.421875 -102.925781 223.421875 -79.03125 C 223.421875 -50.9375 214.109375 -29.6875 195.484375 -15.28125 C 176.867188 -0.875 150.171875 6.328125 115.390625 6.328125 Z M 115.390625 6.328125 "/></g></g></g><g clip-path="url(#fc8884ee8b)"><g clip-path="url(#ebf67d5e58)"><g clip-path="url(#864eb5b371)"><path fill="#8e22bb" d="M 720.234375 902.433594 L 700.925781 776.691406 L 949.953125 738.449219 L 969.261719 864.191406 Z M 720.234375 902.433594 " fill-opacity="1" fill-rule="nonzero"/></g></g></g><g clip-path="url(#070cfb80a8)"><g clip-path="url(#5b913a09a7)"><g clip-path="url(#d3adf6ed88)"><path fill="#5ce1e6" d="M 664.347656 440.117188 L 684.628906 281.078125 L 969.78125 317.4375 L 949.503906 476.476562 Z M 664.347656 440.117188 " fill-opacity="1" fill-rule="nonzero"/></g></g></g><g clip-path="url(#18879f4297)"><g clip-path="url(#e52eda7322)"><g clip-path="url(#27e632aef8)"><path fill="#8e22bb" d="M 481.277344 312.933594 L 500.34375 438.710938 L 251.246094 476.472656 L 232.175781 350.695312 Z M 481.277344 312.933594 " fill-opacity="1" fill-rule="nonzero"/></g></g></g><g clip-path="url(#f6176ea51b)"><g clip-path="url(#87c14f9d45)"><g clip-path="url(#0fcc5017bf)"><path fill="#035aa6" d="M 538.273438 776.859375 L 516.84375 935.746094 L 231.960938 897.324219 L 253.390625 738.433594 Z M 538.273438 776.859375 " fill-opacity="1" fill-rule="nonzero"/></g></g></g><g fill="#023e73" fill-opacity="0.4"><g transform="translate(362.011259, 1009.930068)"><g><path d="M 43.421875 1.9375 C 32.378906 1.9375 23.5625 -1.382812 16.96875 -8.03125 C 10.375 -14.6875 7.078125 -23.859375 7.078125 -35.546875 L 7.078125 -54.515625 C 7.078125 -66.097656 10.316406 -75.210938 16.796875 -81.859375 C 23.285156 -88.503906 32.160156 -91.828125 43.421875 -91.828125 C 52.109375 -91.828125 60.203125 -89.738281 67.703125 -85.5625 L 63.84375 -73.984375 C 57.945312 -77.410156 51.625 -79.125 44.875 -79.125 C 36.832031 -79.125 30.878906 -76.765625 27.015625 -72.046875 C 23.160156 -67.328125 21.234375 -61.269531 21.234375 -53.875 L 21.234375 -36.1875 C 21.234375 -28.789062 23.1875 -22.707031 27.09375 -17.9375 C 31.007812 -13.164062 36.9375 -10.78125 44.875 -10.78125 C 51.726562 -10.78125 58.109375 -12.492188 64.015625 -15.921875 L 67.875 -4.1875 C 60.582031 -0.101562 52.429688 1.9375 43.421875 1.9375 Z M 43.421875 1.9375 "/></g></g></g><g fill="#023e73" fill-opacity="1"><g transform="translate(355.028704, 1002.699418)"><g><path d="M 43.421875 1.9375 C 32.378906 1.9375 23.5625 -1.382812 16.96875 -8.03125 C 10.375 -14.6875 7.078125 -23.859375 7.078125 -35.546875 L 7.078125 -54.515625 C 7.078125 -66.097656 10.316406 -75.210938 16.796875 -81.859375 C 23.285156 -88.503906 32.160156 -91.828125 43.421875 -91.828125 C 52.109375 -91.828125 60.203125 -89.738281 67.703125 -85.5625 L 63.84375 -73.984375 C 57.945312 -77.410156 51.625 -79.125 44.875 -79.125 C 36.832031 -79.125 30.878906 -76.765625 27.015625 -72.046875 C 23.160156 -67.328125 21.234375 -61.269531 21.234375 -53.875 L 21.234375 -36.1875 C 21.234375 -28.789062 23.1875 -22.707031 27.09375 -17.9375 C 31.007812 -13.164062 36.9375 -10.78125 44.875 -10.78125 C 51.726562 -10.78125 58.109375 -12.492188 64.015625 -15.921875 L 67.875 -4.1875 C 60.582031 -0.101562 52.429688 1.9375 43.421875 1.9375 Z M 43.421875 1.9375 "/></g></g></g><g fill="#023e73" fill-opacity="0.4"><g transform="translate(429.279557, 1002.676718)"><g><path d="M 21.4375 -49.59375 C 26.957031 -49.59375 31.253906 -48.328125 34.328125 -45.796875 C 37.410156 -43.273438 38.953125 -39.019531 38.953125 -33.03125 L 38.953125 -1.140625 C 36.285156 -0.492188 33.441406 0.03125 30.421875 0.4375 C 27.398438 0.84375 24.609375 1.046875 22.046875 1.046875 C 16.066406 1.046875 11.40625 -0.1875 8.0625 -2.65625 C 4.71875 -5.125 3.046875 -8.945312 3.046875 -14.125 L 3.046875 -14.984375 C 3.046875 -19.984375 4.65625 -23.703125 7.875 -26.140625 C 11.101562 -28.585938 15.65625 -29.8125 21.53125 -29.8125 C 22.863281 -29.8125 24.34375 -29.738281 25.96875 -29.59375 C 27.59375 -29.445312 29.394531 -29.171875 31.375 -28.765625 L 31.375 -32.59375 C 31.375 -36.019531 30.457031 -38.5625 28.625 -40.21875 C 26.800781 -41.875 23.882812 -42.703125 19.875 -42.703125 C 17.78125 -42.703125 15.453125 -42.394531 12.890625 -41.78125 C 10.335938 -41.175781 7.957031 -40.351562 5.75 -39.3125 L 7.40625 -46.71875 C 9.144531 -47.53125 11.335938 -48.210938 13.984375 -48.765625 C 16.628906 -49.316406 19.113281 -49.59375 21.4375 -49.59375 Z M 10.71875 -14.734375 L 10.71875 -14.46875 C 10.71875 -8.65625 14.640625 -5.75 22.484375 -5.75 C 23.703125 -5.75 25.109375 -5.820312 26.703125 -5.96875 C 28.304688 -6.113281 29.863281 -6.300781 31.375 -6.53125 L 31.375 -22.21875 C 29.863281 -22.570312 28.304688 -22.832031 26.703125 -23 C 25.109375 -23.175781 23.734375 -23.265625 22.578125 -23.265625 C 14.671875 -23.265625 10.71875 -20.421875 10.71875 -14.734375 Z M 10.71875 -14.734375 "/></g></g></g><g fill="#023e73" fill-opacity="0.4"><g transform="translate(472.680807, 1002.676718)"><g><path d="M 12.8125 0 L 5.234375 0 L 5.234375 -46.28125 C 7.609375 -47.09375 10.304688 -47.671875 13.328125 -48.015625 C 16.347656 -48.367188 18.9375 -48.546875 21.09375 -48.546875 L 28.15625 -48.546875 L 28.15625 -41.578125 L 21.96875 -41.578125 C 20.570312 -41.578125 18.957031 -41.472656 17.125 -41.265625 C 15.289062 -41.066406 13.851562 -40.734375 12.8125 -40.265625 Z M 12.8125 0 "/></g></g></g><g fill="#023e73" fill-opacity="0.4"><g transform="translate(503.270843, 1002.676718)"><g><path d="M 23.703125 1.046875 C 17.191406 1.046875 12.238281 -0.8125 8.84375 -4.53125 C 5.445312 -8.25 3.75 -13.160156 3.75 -19.265625 L 3.75 -29.453125 C 3.75 -35.554688 5.414062 -40.46875 8.75 -44.1875 C 12.09375 -47.90625 17.019531 -49.765625 23.53125 -49.765625 C 25.101562 -49.765625 26.71875 -49.601562 28.375 -49.28125 C 30.03125 -48.96875 31.671875 -48.578125 33.296875 -48.109375 L 33.296875 -70.6875 L 40.875 -70.6875 L 40.875 -1.921875 C 35.46875 0.0546875 29.742188 1.046875 23.703125 1.046875 Z M 23.96875 -5.75 C 25.65625 -5.75 27.265625 -5.863281 28.796875 -6.09375 C 30.335938 -6.332031 31.835938 -6.65625 33.296875 -7.0625 L 33.296875 -41.3125 C 31.835938 -41.78125 30.296875 -42.15625 28.671875 -42.4375 C 27.046875 -42.726562 25.476562 -42.875 23.96875 -42.875 C 19.726562 -42.875 16.585938 -41.640625 14.546875 -39.171875 C 12.515625 -36.703125 11.5 -33.582031 11.5 -29.8125 L 11.5 -18.90625 C 11.5 -15.1875 12.515625 -12.0625 14.546875 -9.53125 C 16.585938 -7.007812 19.726562 -5.75 23.96875 -5.75 Z M 23.96875 -5.75 "/></g></g></g><g fill="#023e73" fill-opacity="1"><g transform="translate(425.495782, 998.758526)"><g><path d="M 21.4375 -49.59375 C 26.957031 -49.59375 31.253906 -48.328125 34.328125 -45.796875 C 37.410156 -43.273438 38.953125 -39.019531 38.953125 -33.03125 L 38.953125 -1.140625 C 36.285156 -0.492188 33.441406 0.03125 30.421875 0.4375 C 27.398438 0.84375 24.609375 1.046875 22.046875 1.046875 C 16.066406 1.046875 11.40625 -0.1875 8.0625 -2.65625 C 4.71875 -5.125 3.046875 -8.945312 3.046875 -14.125 L 3.046875 -14.984375 C 3.046875 -19.984375 4.65625 -23.703125 7.875 -26.140625 C 11.101562 -28.585938 15.65625 -29.8125 21.53125 -29.8125 C 22.863281 -29.8125 24.34375 -29.738281 25.96875 -29.59375 C 27.59375 -29.445312 29.394531 -29.171875 31.375 -28.765625 L 31.375 -32.59375 C 31.375 -36.019531 30.457031 -38.5625 28.625 -40.21875 C 26.800781 -41.875 23.882812 -42.703125 19.875 -42.703125 C 17.78125 -42.703125 15.453125 -42.394531 12.890625 -41.78125 C 10.335938 -41.175781 7.957031 -40.351562 5.75 -39.3125 L 7.40625 -46.71875 C 9.144531 -47.53125 11.335938 -48.210938 13.984375 -48.765625 C 16.628906 -49.316406 19.113281 -49.59375 21.4375 -49.59375 Z M 10.71875 -14.734375 L 10.71875 -14.46875 C 10.71875 -8.65625 14.640625 -5.75 22.484375 -5.75 C 23.703125 -5.75 25.109375 -5.820312 26.703125 -5.96875 C 28.304688 -6.113281 29.863281 -6.300781 31.375 -6.53125 L 31.375 -22.21875 C 29.863281 -22.570312 28.304688 -22.832031 26.703125 -23 C 25.109375 -23.175781 23.734375 -23.265625 22.578125 -23.265625 C 14.671875 -23.265625 10.71875 -20.421875 10.71875 -14.734375 Z M 10.71875 -14.734375 "/></g></g></g><g fill="#023e73" fill-opacity="1"><g transform="translate(468.897032, 998.758526)"><g><path d="M 12.8125 0 L 5.234375 0 L 5.234375 -46.28125 C 7.609375 -47.09375 10.304688 -47.671875 13.328125 -48.015625 C 16.347656 -48.367188 18.9375 -48.546875 21.09375 -48.546875 L 28.15625 -48.546875 L 28.15625 -41.578125 L 21.96875 -41.578125 C 20.570312 -41.578125 18.957031 -41.472656 17.125 -41.265625 C 15.289062 -41.066406 13.851562 -40.734375 12.8125 -40.265625 Z M 12.8125 0 "/></g></g></g><g fill="#023e73" fill-opacity="1"><g transform="translate(499.487068, 998.758526)"><g><path d="M 23.703125 1.046875 C 17.191406 1.046875 12.238281 -0.8125 8.84375 -4.53125 C 5.445312 -8.25 3.75 -13.160156 3.75 -19.265625 L 3.75 -29.453125 C 3.75 -35.554688 5.414062 -40.46875 8.75 -44.1875 C 12.09375 -47.90625 17.019531 -49.765625 23.53125 -49.765625 C 25.101562 -49.765625 26.71875 -49.601562 28.375 -49.28125 C 30.03125 -48.96875 31.671875 -48.578125 33.296875 -48.109375 L 33.296875 -70.6875 L 40.875 -70.6875 L 40.875 -1.921875 C 35.46875 0.0546875 29.742188 1.046875 23.703125 1.046875 Z M 23.96875 -5.75 C 25.65625 -5.75 27.265625 -5.863281 28.796875 -6.09375 C 30.335938 -6.332031 31.835938 -6.65625 33.296875 -7.0625 L 33.296875 -41.3125 C 31.835938 -41.78125 30.296875 -42.15625 28.671875 -42.4375 C 27.046875 -42.726562 25.476562 -42.875 23.96875 -42.875 C 19.726562 -42.875 16.585938 -41.640625 14.546875 -39.171875 C 12.515625 -36.703125 11.5 -33.582031 11.5 -29.8125 L 11.5 -18.90625 C 11.5 -15.1875 12.515625 -12.0625 14.546875 -9.53125 C 16.585938 -7.007812 19.726562 -5.75 23.96875 -5.75 Z M 23.96875 -5.75 "/></g></g></g><g fill="#023e73" fill-opacity="0.4"><g transform="translate(560.870266, 1009.930068)"><g><path d="M 35.21875 1.9375 C 29.96875 1.9375 25.007812 1.425781 20.34375 0.40625 C 15.675781 -0.613281 11.144531 -2.085938 6.75 -4.015625 L 9.65625 -16.078125 C 13.40625 -14.253906 17.394531 -12.914062 21.625 -12.0625 C 25.863281 -11.207031 29.914062 -10.78125 33.78125 -10.78125 C 39.78125 -10.78125 44.679688 -11.632812 48.484375 -13.34375 C 52.296875 -15.0625 54.203125 -18.382812 54.203125 -23.3125 C 54.203125 -27.28125 52.96875 -30.3125 50.5 -32.40625 C 48.03125 -34.5 43.523438 -36.617188 36.984375 -38.765625 L 30.078125 -41.171875 C 22.359375 -43.847656 16.804688 -47.222656 13.421875 -51.296875 C 10.046875 -55.378906 8.359375 -60.742188 8.359375 -67.390625 C 8.359375 -75.210938 11.007812 -81.1875 16.3125 -85.3125 C 21.625 -89.445312 28.835938 -91.515625 37.953125 -91.515625 C 42.890625 -91.515625 47.609375 -91.03125 52.109375 -90.0625 C 56.609375 -89.09375 60.734375 -87.59375 64.484375 -85.5625 L 61.59375 -73.65625 C 57.945312 -75.582031 54.191406 -76.945312 50.328125 -77.75 C 46.472656 -78.5625 42.773438 -78.96875 39.234375 -78.96875 C 34.085938 -78.96875 29.988281 -78.054688 26.9375 -76.234375 C 23.882812 -74.410156 22.359375 -71.566406 22.359375 -67.703125 C 22.359375 -64.054688 23.507812 -61.160156 25.8125 -59.015625 C 28.113281 -56.878906 32.054688 -54.898438 37.640625 -53.078125 L 43.578125 -50.984375 C 51.835938 -48.085938 58.003906 -44.707031 62.078125 -40.84375 C 66.148438 -36.988281 68.1875 -31.414062 68.1875 -24.125 C 68.1875 -15.550781 65.34375 -9.0625 59.65625 -4.65625 C 53.976562 -0.257812 45.832031 1.9375 35.21875 1.9375 Z M 35.21875 1.9375 "/></g></g></g><g fill="#023e73" fill-opacity="1"><g transform="translate(553.887726, 1002.699418)"><g><path d="M 35.21875 1.9375 C 29.96875 1.9375 25.007812 1.425781 20.34375 0.40625 C 15.675781 -0.613281 11.144531 -2.085938 6.75 -4.015625 L 9.65625 -16.078125 C 13.40625 -14.253906 17.394531 -12.914062 21.625 -12.0625 C 25.863281 -11.207031 29.914062 -10.78125 33.78125 -10.78125 C 39.78125 -10.78125 44.679688 -11.632812 48.484375 -13.34375 C 52.296875 -15.0625 54.203125 -18.382812 54.203125 -23.3125 C 54.203125 -27.28125 52.96875 -30.3125 50.5 -32.40625 C 48.03125 -34.5 43.523438 -36.617188 36.984375 -38.765625 L 30.078125 -41.171875 C 22.359375 -43.847656 16.804688 -47.222656 13.421875 -51.296875 C 10.046875 -55.378906 8.359375 -60.742188 8.359375 -67.390625 C 8.359375 -75.210938 11.007812 -81.1875 16.3125 -85.3125 C 21.625 -89.445312 28.835938 -91.515625 37.953125 -91.515625 C 42.890625 -91.515625 47.609375 -91.03125 52.109375 -90.0625 C 56.609375 -89.09375 60.734375 -87.59375 64.484375 -85.5625 L 61.59375 -73.65625 C 57.945312 -75.582031 54.191406 -76.945312 50.328125 -77.75 C 46.472656 -78.5625 42.773438 -78.96875 39.234375 -78.96875 C 34.085938 -78.96875 29.988281 -78.054688 26.9375 -76.234375 C 23.882812 -74.410156 22.359375 -71.566406 22.359375 -67.703125 C 22.359375 -64.054688 23.507812 -61.160156 25.8125 -59.015625 C 28.113281 -56.878906 32.054688 -54.898438 37.640625 -53.078125 L 43.578125 -50.984375 C 51.835938 -48.085938 58.003906 -44.707031 62.078125 -40.84375 C 66.148438 -36.988281 68.1875 -31.414062 68.1875 -24.125 C 68.1875 -15.550781 65.34375 -9.0625 59.65625 -4.65625 C 53.976562 -0.257812 45.832031 1.9375 35.21875 1.9375 Z M 35.21875 1.9375 "/></g></g></g><g fill="#023e73" fill-opacity="0.4"><g transform="translate(630.676378, 1002.676718)"><g><path d="M 23.796875 1.046875 C 19.671875 1.046875 16.097656 0.203125 13.078125 -1.484375 C 10.054688 -3.171875 7.742188 -5.550781 6.140625 -8.625 C 4.546875 -11.707031 3.75 -15.28125 3.75 -19.34375 L 3.75 -29.453125 C 3.75 -33.523438 4.546875 -37.085938 6.140625 -40.140625 C 7.742188 -43.191406 10.054688 -45.554688 13.078125 -47.234375 C 16.097656 -48.921875 19.671875 -49.765625 23.796875 -49.765625 C 27.972656 -49.765625 31.539062 -48.921875 34.5 -47.234375 C 37.46875 -45.554688 39.75 -43.191406 41.34375 -40.140625 C 42.945312 -37.085938 43.75 -33.523438 43.75 -29.453125 L 43.75 -19.34375 C 43.75 -13.1875 41.976562 -8.25 38.4375 -4.53125 C 34.894531 -0.8125 30.015625 1.046875 23.796875 1.046875 Z M 23.796875 -5.84375 C 27.691406 -5.84375 30.710938 -7.085938 32.859375 -9.578125 C 35.003906 -12.078125 36.078125 -15.21875 36.078125 -19 L 36.078125 -29.8125 C 36.078125 -33.582031 35.003906 -36.703125 32.859375 -39.171875 C 30.710938 -41.640625 27.691406 -42.875 23.796875 -42.875 C 19.898438 -42.875 16.875 -41.640625 14.71875 -39.171875 C 12.570312 -36.703125 11.5 -33.582031 11.5 -29.8125 L 11.5 -19 C 11.5 -15.21875 12.570312 -12.078125 14.71875 -9.578125 C 16.875 -7.085938 19.898438 -5.84375 23.796875 -5.84375 Z M 23.796875 -5.84375 "/></g></g><g transform="translate(678.260889, 1002.676718)"><g><path d="M 12.8125 0 L 5.234375 0 L 5.234375 -46.28125 C 7.609375 -47.09375 10.304688 -47.671875 13.328125 -48.015625 C 16.347656 -48.367188 18.9375 -48.546875 21.09375 -48.546875 L 28.15625 -48.546875 L 28.15625 -41.578125 L 21.96875 -41.578125 C 20.570312 -41.578125 18.957031 -41.472656 17.125 -41.265625 C 15.289062 -41.066406 13.851562 -40.734375 12.8125 -40.265625 Z M 12.8125 0 "/></g></g></g><g fill="#023e73" fill-opacity="0.4"><g transform="translate(708.850923, 1002.676718)"><g><path d="M 31.90625 0 L 24.671875 0 C 19.554688 0 15.804688 -1.128906 13.421875 -3.390625 C 11.035156 -5.660156 9.84375 -9.351562 9.84375 -14.46875 L 9.84375 -41.3125 L 2.09375 -41.3125 L 2.09375 -48.203125 L 9.84375 -48.203125 L 9.84375 -64.5 L 17.4375 -64.5 L 17.4375 -48.203125 L 31.8125 -48.203125 L 31.8125 -41.3125 L 17.4375 -41.3125 L 17.4375 -16.125 C 17.4375 -12.925781 18.203125 -10.613281 19.734375 -9.1875 C 21.273438 -7.769531 23.675781 -7.0625 26.9375 -7.0625 L 31.90625 -7.0625 Z M 31.90625 0 "/></g></g><g transform="translate(743.885673, 1002.676718)"><g><path d="M 8.984375 -55.25 C 7.523438 -55.25 6.375 -55.640625 5.53125 -56.421875 C 4.6875 -57.210938 4.265625 -58.335938 4.265625 -59.796875 C 4.265625 -61.128906 4.6875 -62.1875 5.53125 -62.96875 C 6.375 -63.75 7.523438 -64.140625 8.984375 -64.140625 C 10.492188 -64.140625 11.664062 -63.75 12.5 -62.96875 C 13.34375 -62.1875 13.765625 -61.128906 13.765625 -59.796875 C 13.765625 -58.335938 13.34375 -57.210938 12.5 -56.421875 C 11.664062 -55.640625 10.492188 -55.25 8.984375 -55.25 Z M 12.8125 0 L 5.234375 0 L 5.234375 -48.203125 L 12.8125 -48.203125 Z M 12.8125 0 "/></g></g><g transform="translate(761.925954, 1002.676718)"><g><path d="M 12.71875 0 L 5.234375 0 L 5.234375 -47.234375 C 8.367188 -48.046875 11.53125 -48.65625 14.71875 -49.0625 C 17.914062 -49.46875 20.648438 -49.671875 22.921875 -49.671875 C 28.148438 -49.671875 32.332031 -48.507812 35.46875 -46.1875 C 38.601562 -43.863281 40.171875 -39.972656 40.171875 -34.515625 L 40.171875 0 L 32.515625 0 L 32.515625 -33.984375 C 32.515625 -37.242188 31.613281 -39.539062 29.8125 -40.875 C 28.007812 -42.207031 25.539062 -42.875 22.40625 -42.875 C 21.007812 -42.875 19.46875 -42.757812 17.78125 -42.53125 C 16.09375 -42.300781 14.40625 -41.953125 12.71875 -41.484375 Z M 12.71875 0 "/></g></g></g><g fill="#023e73" fill-opacity="0.4"><g transform="translate(806.46016, 1002.676718)"><g><path d="M 24.671875 -49.765625 C 27.398438 -49.765625 30.285156 -49.441406 33.328125 -48.796875 C 36.378906 -48.160156 38.984375 -47.4375 41.140625 -46.625 L 41.140625 3.40625 C 41.140625 9.382812 39.554688 13.625 36.390625 16.125 C 33.222656 18.625 29.023438 19.875 23.796875 19.875 C 21.472656 19.875 19.0625 19.597656 16.5625 19.046875 C 14.0625 18.492188 12.113281 17.8125 10.71875 17 L 9.234375 9.40625 C 11.148438 10.457031 13.34375 11.300781 15.8125 11.9375 C 18.28125 12.582031 20.5625 12.90625 22.65625 12.90625 C 26.78125 12.90625 29.613281 12.015625 31.15625 10.234375 C 32.695312 8.460938 33.46875 5.894531 33.46875 2.53125 L 33.46875 -1.484375 C 31.957031 -1.078125 30.429688 -0.785156 28.890625 -0.609375 C 27.347656 -0.429688 25.910156 -0.34375 24.578125 -0.34375 C 17.722656 -0.34375 12.550781 -2.085938 9.0625 -5.578125 C 5.570312 -9.066406 3.828125 -13.976562 3.828125 -20.3125 L 3.828125 -30.15625 C 3.828125 -36.550781 5.613281 -41.414062 9.1875 -44.75 C 12.769531 -48.09375 17.929688 -49.765625 24.671875 -49.765625 Z M 11.5 -30.25 L 11.5 -20.046875 C 11.5 -11.617188 16.003906 -7.40625 25.015625 -7.40625 C 26.171875 -7.40625 27.488281 -7.503906 28.96875 -7.703125 C 30.457031 -7.910156 31.957031 -8.21875 33.46875 -8.625 L 33.46875 -41.40625 C 30.5 -42.332031 27.648438 -42.796875 24.921875 -42.796875 C 15.972656 -42.796875 11.5 -38.613281 11.5 -30.25 Z M 11.5 -30.25 "/></g></g></g><g fill="#023e73" fill-opacity="1"><g transform="translate(626.892631, 998.758526)"><g><path d="M 23.796875 1.046875 C 19.671875 1.046875 16.097656 0.203125 13.078125 -1.484375 C 10.054688 -3.171875 7.742188 -5.550781 6.140625 -8.625 C 4.546875 -11.707031 3.75 -15.28125 3.75 -19.34375 L 3.75 -29.453125 C 3.75 -33.523438 4.546875 -37.085938 6.140625 -40.140625 C 7.742188 -43.191406 10.054688 -45.554688 13.078125 -47.234375 C 16.097656 -48.921875 19.671875 -49.765625 23.796875 -49.765625 C 27.972656 -49.765625 31.539062 -48.921875 34.5 -47.234375 C 37.46875 -45.554688 39.75 -43.191406 41.34375 -40.140625 C 42.945312 -37.085938 43.75 -33.523438 43.75 -29.453125 L 43.75 -19.34375 C 43.75 -13.1875 41.976562 -8.25 38.4375 -4.53125 C 34.894531 -0.8125 30.015625 1.046875 23.796875 1.046875 Z M 23.796875 -5.84375 C 27.691406 -5.84375 30.710938 -7.085938 32.859375 -9.578125 C 35.003906 -12.078125 36.078125 -15.21875 36.078125 -19 L 36.078125 -29.8125 C 36.078125 -33.582031 35.003906 -36.703125 32.859375 -39.171875 C 30.710938 -41.640625 27.691406 -42.875 23.796875 -42.875 C 19.898438 -42.875 16.875 -41.640625 14.71875 -39.171875 C 12.570312 -36.703125 11.5 -33.582031 11.5 -29.8125 L 11.5 -19 C 11.5 -15.21875 12.570312 -12.078125 14.71875 -9.578125 C 16.875 -7.085938 19.898438 -5.84375 23.796875 -5.84375 Z M 23.796875 -5.84375 "/></g></g><g transform="translate(674.477142, 998.758526)"><g><path d="M 12.8125 0 L 5.234375 0 L 5.234375 -46.28125 C 7.609375 -47.09375 10.304688 -47.671875 13.328125 -48.015625 C 16.347656 -48.367188 18.9375 -48.546875 21.09375 -48.546875 L 28.15625 -48.546875 L 28.15625 -41.578125 L 21.96875 -41.578125 C 20.570312 -41.578125 18.957031 -41.472656 17.125 -41.265625 C 15.289062 -41.066406 13.851562 -40.734375 12.8125 -40.265625 Z M 12.8125 0 "/></g></g></g><g fill="#023e73" fill-opacity="1"><g transform="translate(705.067176, 998.758526)"><g><path d="M 31.90625 0 L 24.671875 0 C 19.554688 0 15.804688 -1.128906 13.421875 -3.390625 C 11.035156 -5.660156 9.84375 -9.351562 9.84375 -14.46875 L 9.84375 -41.3125 L 2.09375 -41.3125 L 2.09375 -48.203125 L 9.84375 -48.203125 L 9.84375 -64.5 L 17.4375 -64.5 L 17.4375 -48.203125 L 31.8125 -48.203125 L 31.8125 -41.3125 L 17.4375 -41.3125 L 17.4375 -16.125 C 17.4375 -12.925781 18.203125 -10.613281 19.734375 -9.1875 C 21.273438 -7.769531 23.675781 -7.0625 26.9375 -7.0625 L 31.90625 -7.0625 Z M 31.90625 0 "/></g></g><g transform="translate(740.101926, 998.758526)"><g><path d="M 8.984375 -55.25 C 7.523438 -55.25 6.375 -55.640625 5.53125 -56.421875 C 4.6875 -57.210938 4.265625 -58.335938 4.265625 -59.796875 C 4.265625 -61.128906 4.6875 -62.1875 5.53125 -62.96875 C 6.375 -63.75 7.523438 -64.140625 8.984375 -64.140625 C 10.492188 -64.140625 11.664062 -63.75 12.5 -62.96875 C 13.34375 -62.1875 13.765625 -61.128906 13.765625 -59.796875 C 13.765625 -58.335938 13.34375 -57.210938 12.5 -56.421875 C 11.664062 -55.640625 10.492188 -55.25 8.984375 -55.25 Z M 12.8125 0 L 5.234375 0 L 5.234375 -48.203125 L 12.8125 -48.203125 Z M 12.8125 0 "/></g></g><g transform="translate(758.142207, 998.758526)"><g><path d="M 12.71875 0 L 5.234375 0 L 5.234375 -47.234375 C 8.367188 -48.046875 11.53125 -48.65625 14.71875 -49.0625 C 17.914062 -49.46875 20.648438 -49.671875 22.921875 -49.671875 C 28.148438 -49.671875 32.332031 -48.507812 35.46875 -46.1875 C 38.601562 -43.863281 40.171875 -39.972656 40.171875 -34.515625 L 40.171875 0 L 32.515625 0 L 32.515625 -33.984375 C 32.515625 -37.242188 31.613281 -39.539062 29.8125 -40.875 C 28.007812 -42.207031 25.539062 -42.875 22.40625 -42.875 C 21.007812 -42.875 19.46875 -42.757812 17.78125 -42.53125 C 16.09375 -42.300781 14.40625 -41.953125 12.71875 -41.484375 Z M 12.71875 0 "/></g></g></g><g fill="#023e73" fill-opacity="1"><g transform="translate(802.676413, 998.758526)"><g><path d="M 24.671875 -49.765625 C 27.398438 -49.765625 30.285156 -49.441406 33.328125 -48.796875 C 36.378906 -48.160156 38.984375 -47.4375 41.140625 -46.625 L 41.140625 3.40625 C 41.140625 9.382812 39.554688 13.625 36.390625 16.125 C 33.222656 18.625 29.023438 19.875 23.796875 19.875 C 21.472656 19.875 19.0625 19.597656 16.5625 19.046875 C 14.0625 18.492188 12.113281 17.8125 10.71875 17 L 9.234375 9.40625 C 11.148438 10.457031 13.34375 11.300781 15.8125 11.9375 C 18.28125 12.582031 20.5625 12.90625 22.65625 12.90625 C 26.78125 12.90625 29.613281 12.015625 31.15625 10.234375 C 32.695312 8.460938 33.46875 5.894531 33.46875 2.53125 L 33.46875 -1.484375 C 31.957031 -1.078125 30.429688 -0.785156 28.890625 -0.609375 C 27.347656 -0.429688 25.910156 -0.34375 24.578125 -0.34375 C 17.722656 -0.34375 12.550781 -2.085938 9.0625 -5.578125 C 5.570312 -9.066406 3.828125 -13.976562 3.828125 -20.3125 L 3.828125 -30.15625 C 3.828125 -36.550781 5.613281 -41.414062 9.1875 -44.75 C 12.769531 -48.09375 17.929688 -49.765625 24.671875 -49.765625 Z M 11.5 -30.25 L 11.5 -20.046875 C 11.5 -11.617188 16.003906 -7.40625 25.015625 -7.40625 C 26.171875 -7.40625 27.488281 -7.503906 28.96875 -7.703125 C 30.457031 -7.910156 31.957031 -8.21875 33.46875 -8.625 L 33.46875 -41.40625 C 30.5 -42.332031 27.648438 -42.796875 24.921875 -42.796875 C 15.972656 -42.796875 11.5 -38.613281 11.5 -30.25 Z M 11.5 -30.25 "/></g></g></g></svg>