<?xml version="1.0" encoding="utf-8"?>
<!-- Generator: Adobe Illustrator 26.0.2, SVG Export Plug-In . SVG Version: 6.00 Build 0)  -->
<svg version="1.1" id="Capa_1" xmlns="http://www.w3.org/2000/svg" xmlns:xlink="http://www.w3.org/1999/xlink" x="0px" y="0px"
	 viewBox="0 0 792 237" style="enable-background:new 0 0 792 237;" xml:space="preserve">
<style type="text/css">
	.st0{fill:#B4D1E6;}
	.st1{fill:#77ADD9;}
	.st2{fill:#5D86C0;}
	.st3{fill:#43628A;}
	.st4{fill:#33496C;}
	.st5{fill:#283A53;}
	.st6{fill:none;stroke:#1D1D1B;stroke-miterlimit:10;}
</style>
<g>
	<path class="st0" d="M118.91-0.28c0,0,45.87,6.01,35.31,57.41l35.31,61.16c0,0,49.51-9.01,29.45-63.63
		C218.98,54.66,188,0.53,118.91-0.28"/>
	<path class="st1" d="M154.23,179.45c0,0,33.46,38.26,67.34-1.78c0,0,37.22-56.56-2.58-123.02c0,0,21.18,50.09-29.45,63.63
		L154.23,179.45z"/>
	<path class="st2" d="M118.91,236.86c0,0,65,4.03,102.65-59.19c0,0-30.29,38.31-67.34,1.78H83.6
		C83.6,179.45,61.92,223.63,118.91,236.86"/>
	<path class="st3" d="M118.91,236.86c0,0-52.54-9.32-35.31-57.41l-35.31-61.16c0,0-47.97,17.08-25.27,69.74
		C23.02,188.03,56.11,237.81,118.91,236.86"/>
	<path class="st4" d="M20.59,52c0,0,27.38-32.33,63.01,5.13l-35.31,61.16c0,0-46.88,15.96-25.27,69.74
		C23.02,188.03-26.4,126.78,20.59,52z"/>
	<path class="st5" d="M118.91-0.28c0,0-57.1-4.83-98.32,52.28c0,0,27.7-31.68,63.01,5.13h70.62C154.23,57.13,168.66,9.1,118.91-0.28
		"/>
	<path class="st6" d="M138.26,82.5"/>
</g>
<g>
	<path d="M282.6,110.27h-10.25V57.33h13.71l13.45,38.51l13.42-38.51h13.71v52.94h-10.22l0.36-38.43l-13.38,38.43h-7.82l-13.42-38.43
		L282.6,110.27z"/>
	<path d="M335.43,57.33h10.36v30.54c0,4.78,0.5,8.09,1.51,9.94c1.01,1.85,2.73,2.78,5.18,2.78c2.45,0,4.17-0.93,5.18-2.78
		c1.01-1.85,1.51-5.17,1.51-9.94V57.33h10.36v33.6c0,3.73-0.21,6.53-0.62,8.4c-0.41,1.87-1.1,3.5-2.07,4.91
		c-1.65,2.42-3.64,4.21-5.96,5.36c-2.33,1.15-5.13,1.73-8.4,1.73c-3.27,0-6.07-0.58-8.4-1.73c-2.33-1.15-4.32-2.94-5.96-5.36
		c-0.97-1.41-1.66-2.98-2.07-4.73s-0.62-4.61-0.62-8.58V57.33z"/>
	<path d="M388.7,110.27h-10.36V57.33h12.58c4,0,6.97,0.14,8.93,0.42c1.95,0.28,3.62,0.73,5,1.36c3.01,1.41,5.3,3.37,6.87,5.89
		c1.58,2.52,2.36,5.48,2.36,8.87c0,4.1-1.13,7.57-3.38,10.42c-2.25,2.85-5.32,4.66-9.2,5.44l13.24,20.54h-12.36L388.7,85.69V110.27z
		 M388.7,83.08h2.29c4.19,0,7.38-0.76,9.54-2.27c2.17-1.51,3.25-3.73,3.25-6.64c0-2.81-0.91-4.88-2.73-6.22
		c-1.82-1.33-4.65-2-8.51-2h-3.85V83.08z"/>
	<path d="M418.37,83.69c0-2.91,0.39-5.65,1.16-8.24c0.78-2.58,1.93-5,3.45-7.25c2.62-3.81,5.9-6.75,9.85-8.82
		c3.95-2.07,8.27-3.11,12.94-3.11c3.51,0,6.9,0.68,10.16,2.04c3.26,1.36,6.17,3.31,8.74,5.85c2.64,2.64,4.65,5.61,6.04,8.91
		c1.38,3.3,2.07,6.76,2.07,10.4c0,3.78-0.65,7.33-1.95,10.65c-1.3,3.32-3.21,6.27-5.73,8.84c-2.54,2.69-5.51,4.76-8.89,6.2
		c-3.38,1.44-6.92,2.16-10.6,2.16c-3.95,0-7.59-0.7-10.91-2.11c-3.32-1.41-6.27-3.49-8.83-6.25c-2.47-2.62-4.35-5.56-5.62-8.82
		C419,90.89,418.37,87.4,418.37,83.69z M429.24,83.33c0,2.28,0.38,4.4,1.13,6.36s1.87,3.76,3.35,5.38c1.62,1.77,3.47,3.13,5.53,4.09
		s4.19,1.44,6.4,1.44c4.63,0,8.51-1.65,11.65-4.94c3.14-3.3,4.71-7.41,4.71-12.33c0-4.51-1.58-8.36-4.75-11.54s-6.96-4.78-11.4-4.78
		c-4.63,0-8.56,1.59-11.78,4.76C430.85,74.94,429.24,78.8,429.24,83.33z"/>
	<path d="M322.08,162.4h-12.65c-1.5-2.04-3.29-3.56-5.36-4.58c-2.07-1.02-4.43-1.53-7.07-1.53c-2.13,0-4.16,0.4-6.07,1.2
		s-3.61,1.96-5.09,3.49c-1.58,1.6-2.79,3.45-3.65,5.54c-0.86,2.1-1.29,4.25-1.29,6.45c0,4.85,1.56,8.92,4.67,12.2
		c3.12,3.29,6.93,4.93,11.44,4.93c2.59,0,4.93-0.48,7-1.45c2.07-0.97,3.75-2.38,5.04-4.22h12.69c-2.47,5.41-5.77,9.47-9.89,12.18
		s-9.04,4.07-14.76,4.07c-3.98,0-7.64-0.76-11-2.29c-3.36-1.53-6.37-3.79-9.04-6.8c-2.25-2.5-3.96-5.34-5.13-8.53
		c-1.16-3.19-1.75-6.6-1.75-10.24c0-3.68,0.7-7.18,2.11-10.49c1.41-3.31,3.47-6.32,6.18-9.04c2.57-2.52,5.42-4.43,8.56-5.73
		c3.14-1.3,6.51-1.95,10.13-1.95c5.79,0,10.75,1.38,14.85,4.14C316.1,152.55,319.47,156.75,322.08,162.4z"/>
	<path d="M326.01,173.05c0-2.91,0.39-5.65,1.16-8.24c0.78-2.58,1.93-5,3.45-7.25c2.62-3.8,5.9-6.74,9.85-8.82
		c3.95-2.07,8.27-3.11,12.94-3.11c3.51,0,6.9,0.68,10.16,2.04c3.26,1.36,6.17,3.31,8.74,5.85c2.64,2.64,4.65,5.61,6.04,8.91
		s2.07,6.76,2.07,10.4c0,3.78-0.65,7.33-1.95,10.65s-3.21,6.27-5.73,8.83c-2.54,2.69-5.51,4.76-8.89,6.2
		c-3.38,1.44-6.92,2.16-10.6,2.16c-3.95,0-7.59-0.7-10.91-2.11c-3.32-1.41-6.27-3.49-8.83-6.25c-2.47-2.62-4.35-5.56-5.62-8.82
		C326.65,180.25,326.01,176.76,326.01,173.05z M336.88,172.69c0,2.28,0.38,4.4,1.13,6.36s1.87,3.76,3.35,5.38
		c1.62,1.77,3.47,3.13,5.53,4.09c2.06,0.96,4.19,1.44,6.4,1.44c4.63,0,8.51-1.65,11.65-4.95c3.14-3.3,4.71-7.4,4.71-12.33
		c0-4.51-1.58-8.36-4.75-11.54s-6.96-4.78-11.4-4.78c-4.63,0-8.56,1.59-11.78,4.76C338.49,164.3,336.88,168.16,336.88,172.69z"/>
	<path d="M413.82,199.63h-26.87v-52.94h10.25v43.63h16.62V199.63z"/>
	<path d="M430.11,188.54L426,199.63h-10.73l20.54-52.94h8.94l20.25,52.94h-11.09l-4.18-11.09H430.11z M446.33,178.73l-6.25-17.05
		l-6.4,17.05H446.33z"/>
	<path d="M467.49,199.63v-52.94h11.38c2.3,0,4.13,0.09,5.49,0.27c1.36,0.18,2.56,0.49,3.6,0.93c2.91,1.19,5.14,2.9,6.69,5.13
		c1.55,2.23,2.33,4.84,2.33,7.82c0,2.47-0.46,4.58-1.38,6.33c-0.92,1.75-2.28,3.07-4.07,3.96c2.62,0.78,4.68,2.27,6.18,4.47
		c1.5,2.21,2.25,4.84,2.25,7.89c0,2.47-0.46,4.79-1.38,6.96c-0.92,2.17-2.19,3.97-3.82,5.4c-1.62,1.36-3.44,2.33-5.45,2.91
		c-2.01,0.58-4.86,0.87-8.54,0.87H467.49z M477.45,168h1.2c2.86,0,4.99-0.51,6.4-1.54c1.41-1.03,2.11-2.58,2.11-4.64
		c0-1.99-0.67-3.46-2-4.4c-1.33-0.95-3.41-1.42-6.22-1.42h-1.49V168z M477.45,190.32h3.13c3.15,0,5.47-0.53,6.94-1.58
		c1.48-1.05,2.22-2.68,2.22-4.89c0-2.4-0.78-4.22-2.33-5.45c-1.55-1.24-3.83-1.85-6.83-1.85h-3.13V190.32z"/>
	<path d="M503.23,173.05c0-2.91,0.39-5.65,1.16-8.24c0.78-2.58,1.93-5,3.45-7.25c2.62-3.8,5.9-6.74,9.85-8.82
		c3.95-2.07,8.27-3.11,12.94-3.11c3.51,0,6.9,0.68,10.16,2.04c3.26,1.36,6.17,3.31,8.74,5.85c2.64,2.64,4.65,5.61,6.04,8.91
		s2.07,6.76,2.07,10.4c0,3.78-0.65,7.33-1.95,10.65s-3.21,6.27-5.73,8.83c-2.54,2.69-5.51,4.76-8.89,6.2
		c-3.38,1.44-6.92,2.16-10.6,2.16c-3.95,0-7.59-0.7-10.91-2.11c-3.32-1.41-6.27-3.49-8.83-6.25c-2.47-2.62-4.35-5.56-5.62-8.82
		C503.87,180.25,503.23,176.76,503.23,173.05z M514.1,172.69c0,2.28,0.38,4.4,1.13,6.36s1.87,3.76,3.35,5.38
		c1.62,1.77,3.47,3.13,5.53,4.09c2.06,0.96,4.19,1.44,6.4,1.44c4.63,0,8.51-1.65,11.65-4.95c3.14-3.3,4.71-7.4,4.71-12.33
		c0-4.51-1.58-8.36-4.75-11.54s-6.96-4.78-11.4-4.78c-4.63,0-8.56,1.59-11.78,4.76C515.71,164.3,514.1,168.16,514.1,172.69z"/>
	<path d="M574.53,199.63h-10.36v-52.94h12.58c4,0,6.97,0.14,8.93,0.42c1.95,0.28,3.62,0.73,5,1.36c3.01,1.41,5.3,3.37,6.87,5.89
		c1.58,2.52,2.36,5.48,2.36,8.87c0,4.1-1.13,7.57-3.38,10.42c-2.25,2.85-5.32,4.66-9.2,5.44l13.24,20.54H588.2l-13.67-24.58V199.63z
		 M574.53,172.44h2.29c4.19,0,7.38-0.76,9.54-2.27c2.17-1.51,3.25-3.73,3.25-6.64c0-2.81-0.91-4.88-2.73-6.22s-4.65-2-8.51-2h-3.85
		V172.44z"/>
	<path d="M614.2,188.54l-4.11,11.09h-10.73l20.54-52.94h8.94l20.25,52.94h-11.09l-4.18-11.09H614.2z M630.42,178.73l-6.25-17.05
		l-6.4,17.05H630.42z"/>
	<path d="M674.67,146.69V156h-9.96v43.63h-10.33V156h-9.96v-9.31H674.67z"/>
	<path d="M679.62,199.63v-52.94h10.36v52.94H679.62z"/>
	<path d="M719.21,199.63h-7.38l-18.98-52.94h11.09L715.5,182l11.6-35.31h11.02L719.21,199.63z"/>
	<path d="M737.39,173.05c0-2.91,0.39-5.65,1.16-8.24c0.78-2.58,1.93-5,3.45-7.25c2.62-3.8,5.9-6.74,9.85-8.82
		c3.95-2.07,8.27-3.11,12.94-3.11c3.51,0,6.9,0.68,10.16,2.04c3.26,1.36,6.17,3.31,8.74,5.85c2.64,2.64,4.65,5.61,6.04,8.91
		s2.07,6.76,2.07,10.4c0,3.78-0.65,7.33-1.95,10.65s-3.21,6.27-5.73,8.83c-2.54,2.69-5.51,4.76-8.89,6.2
		c-3.38,1.44-6.92,2.16-10.6,2.16c-3.95,0-7.59-0.7-10.91-2.11c-3.32-1.41-6.27-3.49-8.83-6.25c-2.47-2.62-4.35-5.56-5.62-8.82
		C738.03,180.25,737.39,176.76,737.39,173.05z M748.27,172.69c0,2.28,0.38,4.4,1.13,6.36s1.87,3.76,3.35,5.38
		c1.62,1.77,3.47,3.13,5.53,4.09c2.06,0.96,4.19,1.44,6.4,1.44c4.63,0,8.51-1.65,11.65-4.95c3.14-3.3,4.71-7.4,4.71-12.33
		c0-4.51-1.58-8.36-4.75-11.54s-6.96-4.78-11.4-4.78c-4.63,0-8.56,1.59-11.78,4.76C749.88,164.3,748.27,168.16,748.27,172.69z"/>
</g>
</svg>
